<svg width="380" height="318" viewBox="0 0 380 318" fill="none" xmlns="http://www.w3.org/2000/svg">
<path d="M2.5 14.4227C2.5 14.4227 49.661 -5.06576 79 2.92254C144.463 20.7466 110.1 114.791 151 168.923C168 191.422 185.957 208.047 213 214.923C272 229.923 313 203.422 357.5 239.422C381.245 258.632 378.5 317.5 378.5 317.5" stroke="white" stroke-width="2"/>
<path d="M1 63.9228C17.3254 62.9919 27.8901 64.1585 42 72.4228C77 92.9225 51 146.422 76 184.923C89.6103 205.883 100.355 216.602 121.5 229.923C161.547 255.151 206 227.422 241.5 246.923C261.111 257.695 271.567 293.07 278 314.5" stroke="white" stroke-width="2"/>
<path d="M1 223.422C17.0115 236.7 23.6408 247.645 42 257.422C77.1386 276.137 108.189 268.922 148 268.922C164 268.922 182 273.422 196 316.922" stroke="white" stroke-width="2"/>
</svg>
